<mxfile host="app.diagrams.net" modified="2023-03-18T00:24:59.264Z" agent="5.0 (Windows NT 10.0; Win64; x64) AppleWebKit/537.36 (KHTML, like Gecko) Chrome/111.0.0.0 Safari/537.36" etag="vMrhu8bF0BnZyxpJgsEK" version="21.0.7" type="github">
  <diagram name="Page-1" id="Fe1sL8hSDDjLGrG8WN3V">
    <mxGraphModel dx="792" dy="664" grid="0" gridSize="10" guides="1" tooltips="1" connect="1" arrows="1" fold="1" page="1" pageScale="1" pageWidth="850" pageHeight="1100" math="0" shadow="0">
      <root>
        <mxCell id="0" />
        <mxCell id="1" parent="0" />
        <mxCell id="VW14tIE7hExinmx6P18e-1" value="Linear Support Vector Machines&lt;br&gt;0.2.2" style="ellipse;whiteSpace=wrap;html=1;aspect=fixed;" parent="1" vertex="1">
          <mxGeometry x="370" y="110" width="80" height="80" as="geometry" />
        </mxCell>
        <mxCell id="VW14tIE7hExinmx6P18e-9" value="Facial Features" style="edgeStyle=orthogonalEdgeStyle;rounded=0;orthogonalLoop=1;jettySize=auto;html=1;entryX=0;entryY=0.5;entryDx=0;entryDy=0;" parent="1" source="VW14tIE7hExinmx6P18e-2" target="VW14tIE7hExinmx6P18e-1" edge="1">
          <mxGeometry relative="1" as="geometry" />
        </mxCell>
        <mxCell id="VW14tIE7hExinmx6P18e-2" value="Histpgram of Oriented Gradients&lt;br&gt;0.2.1" style="ellipse;whiteSpace=wrap;html=1;aspect=fixed;" parent="1" vertex="1">
          <mxGeometry x="190" y="110" width="80" height="80" as="geometry" />
        </mxCell>
        <mxCell id="VW14tIE7hExinmx6P18e-4" value="" style="endArrow=none;html=1;rounded=0;" parent="1" edge="1">
          <mxGeometry width="50" height="50" relative="1" as="geometry">
            <mxPoint x="50" y="90" as="sourcePoint" />
            <mxPoint x="160" y="90" as="targetPoint" />
          </mxGeometry>
        </mxCell>
        <mxCell id="VW14tIE7hExinmx6P18e-6" value="" style="edgeStyle=orthogonalEdgeStyle;rounded=0;orthogonalLoop=1;jettySize=auto;html=1;" parent="1" source="VW14tIE7hExinmx6P18e-5" target="VW14tIE7hExinmx6P18e-2" edge="1">
          <mxGeometry relative="1" as="geometry" />
        </mxCell>
        <mxCell id="VW14tIE7hExinmx6P18e-8" value="Input Images" style="edgeLabel;html=1;align=center;verticalAlign=middle;resizable=0;points=[];" parent="VW14tIE7hExinmx6P18e-6" vertex="1" connectable="0">
          <mxGeometry x="-0.0947" y="2" relative="1" as="geometry">
            <mxPoint as="offset" />
          </mxGeometry>
        </mxCell>
        <mxCell id="VW14tIE7hExinmx6P18e-5" value="Pre-processed Data" style="text;html=1;align=center;verticalAlign=middle;resizable=0;points=[];autosize=1;strokeColor=none;fillColor=none;" parent="1" vertex="1">
          <mxGeometry x="40" y="60" width="130" height="30" as="geometry" />
        </mxCell>
        <mxCell id="VW14tIE7hExinmx6P18e-7" value="" style="endArrow=none;html=1;rounded=0;" parent="1" edge="1">
          <mxGeometry width="50" height="50" relative="1" as="geometry">
            <mxPoint x="50" y="60" as="sourcePoint" />
            <mxPoint x="160" y="60" as="targetPoint" />
          </mxGeometry>
        </mxCell>
        <mxCell id="VW14tIE7hExinmx6P18e-10" value="Regression Tree Ensemble&lt;br&gt;Algorithm 0.3.1" style="ellipse;whiteSpace=wrap;html=1;aspect=fixed;" parent="1" vertex="1">
          <mxGeometry x="218" y="290" width="80" height="80" as="geometry" />
        </mxCell>
        <mxCell id="VW14tIE7hExinmx6P18e-11" value="" style="endArrow=none;html=1;rounded=0;" parent="1" edge="1">
          <mxGeometry width="50" height="50" relative="1" as="geometry">
            <mxPoint x="78" y="270" as="sourcePoint" />
            <mxPoint x="188" y="270" as="targetPoint" />
          </mxGeometry>
        </mxCell>
        <mxCell id="VW14tIE7hExinmx6P18e-12" value="" style="edgeStyle=orthogonalEdgeStyle;rounded=0;orthogonalLoop=1;jettySize=auto;html=1;" parent="1" source="VW14tIE7hExinmx6P18e-14" target="VW14tIE7hExinmx6P18e-10" edge="1">
          <mxGeometry relative="1" as="geometry" />
        </mxCell>
        <mxCell id="VW14tIE7hExinmx6P18e-13" value="Cropped Images" style="edgeLabel;html=1;align=center;verticalAlign=middle;resizable=0;points=[];" parent="VW14tIE7hExinmx6P18e-12" vertex="1" connectable="0">
          <mxGeometry x="-0.0947" y="2" relative="1" as="geometry">
            <mxPoint x="17" y="12" as="offset" />
          </mxGeometry>
        </mxCell>
        <mxCell id="VW14tIE7hExinmx6P18e-14" value="Facial images" style="text;html=1;align=center;verticalAlign=middle;resizable=0;points=[];autosize=1;strokeColor=none;fillColor=none;" parent="1" vertex="1">
          <mxGeometry x="87" y="242" width="92" height="26" as="geometry" />
        </mxCell>
        <mxCell id="VW14tIE7hExinmx6P18e-15" value="" style="endArrow=none;html=1;rounded=0;" parent="1" edge="1">
          <mxGeometry width="50" height="50" relative="1" as="geometry">
            <mxPoint x="78" y="240" as="sourcePoint" />
            <mxPoint x="188" y="240" as="targetPoint" />
          </mxGeometry>
        </mxCell>
        <mxCell id="VW14tIE7hExinmx6P18e-16" value="Euclidean Algorithm&lt;br&gt;0.4.1" style="ellipse;whiteSpace=wrap;html=1;aspect=fixed;" parent="1" vertex="1">
          <mxGeometry x="533" y="292" width="80" height="80" as="geometry" />
        </mxCell>
        <mxCell id="VW14tIE7hExinmx6P18e-17" value="" style="endArrow=none;html=1;rounded=0;" parent="1" edge="1">
          <mxGeometry width="50" height="50" relative="1" as="geometry">
            <mxPoint x="393" y="272" as="sourcePoint" />
            <mxPoint x="503" y="272" as="targetPoint" />
          </mxGeometry>
        </mxCell>
        <mxCell id="VW14tIE7hExinmx6P18e-18" value="" style="edgeStyle=orthogonalEdgeStyle;rounded=0;orthogonalLoop=1;jettySize=auto;html=1;" parent="1" source="VW14tIE7hExinmx6P18e-20" target="VW14tIE7hExinmx6P18e-16" edge="1">
          <mxGeometry relative="1" as="geometry" />
        </mxCell>
        <mxCell id="VW14tIE7hExinmx6P18e-19" value="Landmark Data" style="edgeLabel;html=1;align=center;verticalAlign=middle;resizable=0;points=[];" parent="VW14tIE7hExinmx6P18e-18" vertex="1" connectable="0">
          <mxGeometry x="-0.0947" y="2" relative="1" as="geometry">
            <mxPoint x="17" y="12" as="offset" />
          </mxGeometry>
        </mxCell>
        <mxCell id="VW14tIE7hExinmx6P18e-20" value="Facial Landmarks" style="text;html=1;align=center;verticalAlign=middle;resizable=0;points=[];autosize=1;strokeColor=none;fillColor=none;" parent="1" vertex="1">
          <mxGeometry x="392" y="244" width="113" height="26" as="geometry" />
        </mxCell>
        <mxCell id="VW14tIE7hExinmx6P18e-21" value="" style="endArrow=none;html=1;rounded=0;" parent="1" edge="1">
          <mxGeometry width="50" height="50" relative="1" as="geometry">
            <mxPoint x="393" y="242" as="sourcePoint" />
            <mxPoint x="503" y="242" as="targetPoint" />
          </mxGeometry>
        </mxCell>
      </root>
    </mxGraphModel>
  </diagram>
</mxfile>
